<svg xmlns="http://www.w3.org/2000/svg" viewBox="0 0 100 100">
  <g stroke="#F59E0B" stroke-width="2.5" stroke-linecap="round">
    <line x1="18" y1="10" x2="18" y2="17"/>
    <line x1="18" y1="33" x2="18" y2="40"/>
    <line x1="4"  y1="25" x2="11" y2="25"/>
    <line x1="25" y1="25" x2="32" y2="25"/>
    <line x1="8"  y1="15" x2="13" y2="20"/>
    <line x1="23" y1="30" x2="28" y2="35"/>
    <line x1="28" y1="15" x2="23" y2="20"/>
    <line x1="8"  y1="35" x2="13" y2="30"/>
  </g>
  <circle cx="18" cy="25" r="11" fill="#FCD34D"/>
  <ellipse cx="52" cy="55" rx="27" ry="18" fill="#9CA3AF"/>
  <ellipse cx="70" cy="48" rx="22" ry="17" fill="#9CA3AF"/>
  <ellipse cx="83" cy="57" rx="15" ry="13" fill="#9CA3AF"/>
  <rect x="26" y="54" width="72" height="18" fill="#9CA3AF" rx="5"/>
  <line x1="36" y1="81" x2="33" y2="93" stroke="#60A5FA" stroke-width="3.5" stroke-linecap="round"/>
  <line x1="56" y1="81" x2="53" y2="93" stroke="#60A5FA" stroke-width="3.5" stroke-linecap="round"/>
  <line x1="76" y1="81" x2="73" y2="93" stroke="#60A5FA" stroke-width="3.5" stroke-linecap="round"/>
</svg>
